<mxfile host="app.diagrams.net" modified="2023-04-21T18:41:19.837Z" agent="Mozilla/5.0 (Windows NT 10.0; Win64; x64) AppleWebKit/537.36 (KHTML, like Gecko) Chrome/112.0.0.0 Safari/537.36" version="21.2.1" etag="frQlK0hrCzlO0iHd0XQe" type="github">
  <diagram name="Страница 1" id="V9ygAMkcSgsEQ4O34iVe">
    <mxGraphModel>
      <root>
        <mxCell id="0" />
        <mxCell id="1" parent="0" />
      </root>
    </mxGraphModel>
  </diagram>
</mxfile>
